<svg id="Layer_1" data-name="Layer 1" xmlns="http://www.w3.org/2000/svg" viewBox="0 0 79 93.04"><defs><style>.cls-1{fill:#ff931e;stroke:#000;opacity:0.59;}.cls-1,.cls-6{stroke-miterlimit:10;}.cls-2,.cls-3{fill:#f15a24;}.cls-2{opacity:0.98;}.cls-4{font-size:3.61px;font-family:Phosphate-Inline, Phosphate;}.cls-5{letter-spacing:0em;}.cls-6{stroke:#e6e6e6;stroke-width:0.75px;opacity:0.93;isolation:isolate;}.cls-7{fill:none;}</style></defs><title>shoekart_logo</title><g id="Boot"><text x="-761.5" y="-422.5"/><text x="-761.5" y="-422.5"/></g><g id="Shopping_Cart_-_Grey" data-name="Shopping Cart - Grey"><text x="-761.5" y="-422.5"/><ellipse class="cls-1" cx="39.5" cy="36" rx="39" ry="35.5"/><path class="cls-2" d="M784.28,436.44a20.8,20.8,0,0,0,3.53,4.44c1.44,1.18,4.68,3.84,5.28,4.58s2,3.32,2.44,4a20,20,0,0,1,1.19,2.13,18.18,18.18,0,0,0,.2,2.39,31.53,31.53,0,0,0,2.83,5.63c1.37-.31,6.36-1.68,8.51-4.35a11.37,11.37,0,0,0-.69-1.51s-.26-.32.54-.78a3.73,3.73,0,0,1,2.08-.49,12.35,12.35,0,0,0,3.32.44,7.19,7.19,0,0,0,2.89-1.2,43.32,43.32,0,0,0,5.36-4.19,19.81,19.81,0,0,0,2.51-3,.4.4,0,0,0-.08-.58c-.18-.13-1.09-1.08-1.46-1.3s-1-.7-1.63-.17a7.89,7.89,0,0,1-2.22,1.4c-.56.16-2.23.78-2.57.9a2.92,2.92,0,0,1-1.86,0c-1.26-.23-4.91-1.39-5.49-1.56a4.13,4.13,0,0,1-2.42-1.28,75.49,75.49,0,0,1-5.38-6.83c-.63-1.12-2.65-4-2.91-4.76s-3.18-1.61-4.09-1.2-5.55,3.1-7.08,4.14S784.06,435.88,784.28,436.44Z" transform="translate(-761.5 -422.5)"/><path d="M779,478.7a.52.52,0,0,0-.44.21,2.38,2.38,0,0,0-.3.53c-.09.21-.18.43-.27.68a3,3,0,0,1-.36.68,1.9,1.9,0,0,1-.57.52,1.61,1.61,0,0,1-.89.22,2.38,2.38,0,0,1-.84-.14,1.59,1.59,0,0,1-.59-.42,1.89,1.89,0,0,1-.35-.66,2.75,2.75,0,0,1-.12-.84,4.78,4.78,0,0,1,.09-1,2.41,2.41,0,0,1,.3-.79l1.12.37-.13.25a2.27,2.27,0,0,0-.11.34,2.61,2.61,0,0,0-.08.42,3.15,3.15,0,0,0,0,.44,1,1,0,0,0,.16.63.51.51,0,0,0,.44.22.54.54,0,0,0,.45-.21,2.85,2.85,0,0,0,.31-.53c.09-.21.18-.43.27-.68a4,4,0,0,1,.36-.68,2.14,2.14,0,0,1,.56-.52,1.59,1.59,0,0,1,.86-.22,2.31,2.31,0,0,1,.91.16,1.52,1.52,0,0,1,.63.45,1.87,1.87,0,0,1,.38.71,3.16,3.16,0,0,1,.12.9,4.17,4.17,0,0,1,0,.63c0,.2-.06.38-.1.55a3.43,3.43,0,0,1-.12.44c0,.13-.09.23-.13.31l-1.14-.39a1.17,1.17,0,0,0,.12-.25c0-.11.08-.22.12-.35a2.59,2.59,0,0,0,.09-.42,2.28,2.28,0,0,0,0-.45,1.57,1.57,0,0,0-.18-.81A.59.59,0,0,0,779,478.7Z" transform="translate(-761.5 -422.5)"/><path d="M778.12,473.23v2.27h2.63v1.19l-6.35.05v-1.2l2.55,0v-2.27l-2.55,0v-1.2l6.36,0v1.2Z" transform="translate(-761.5 -422.5)"/><path d="M777.56,471.19a5.42,5.42,0,0,1-1.4-.17,3.21,3.21,0,0,1-1-.51,2.15,2.15,0,0,1-.64-.82,2.57,2.57,0,0,1-.23-1.1,2.47,2.47,0,0,1,.23-1.15,2.23,2.23,0,0,1,.67-.82,3,3,0,0,1,1-.5,4.79,4.79,0,0,1,1.35-.18,5.42,5.42,0,0,1,1.4.17,2.9,2.9,0,0,1,1,.52,2.26,2.26,0,0,1,.65.82,2.59,2.59,0,0,1,.23,1.09,2.57,2.57,0,0,1-.24,1.15,2.26,2.26,0,0,1-.67.83,3,3,0,0,1-1,.49A5.11,5.11,0,0,1,777.56,471.19Zm0-1.28a4.57,4.57,0,0,0,.86-.08,2.28,2.28,0,0,0,.67-.25,1.27,1.27,0,0,0,.44-.42,1.26,1.26,0,0,0-.35-1.6,2.85,2.85,0,0,0-1.64-.35,5.44,5.44,0,0,0-.84.08,1.91,1.91,0,0,0-.67.25,1.3,1.3,0,0,0-.45.42,1.21,1.21,0,0,0-.15.62,1.15,1.15,0,0,0,.51,1A2.87,2.87,0,0,0,777.55,469.91Z" transform="translate(-761.5 -422.5)"/><path d="M774.35,465.11l0-3.65h1.18v2.45h1.38v-2.22h1.18v2.23h1.43v-2.5h1.18l0,3.7Z" transform="translate(-761.5 -422.5)"/><path class="cls-3" d="M778,459v.32l2.69,0v1.2l-6.36,0v-1.2l2.8,0L777,459l-2.67-1.68V456l2.67,1.78.34.47.36-.49,3-2.08v1.48Z" transform="translate(-761.5 -422.5)"/><path class="cls-3" d="M779.28,452.27v1.91l1.36.45v1.2l-6.41-2.17v-.89l6.39-2.27v1.27Zm-1,1.59v-1.3l-1.32.45-1,.2v0l1,.19Z" transform="translate(-761.5 -422.5)"/><path class="cls-3" d="M774.33,450a4.3,4.3,0,0,1-.07-.43c0-.15,0-.31-.06-.46l0-.46c0-.15,0-.29,0-.41a4.8,4.8,0,0,1,.08-.85,2.24,2.24,0,0,1,.28-.75,1.52,1.52,0,0,1,.54-.53,1.71,1.71,0,0,1,.88-.21,2.25,2.25,0,0,1,1.29.34,1.74,1.74,0,0,1,.69.94l.28-.43,2.4-1.43v1.39l-2.45,1.43-.11.63,2.57,0V450Zm1-1.85c0,.12,0,.24,0,.36a1,1,0,0,0,0,.28h1.76v-.51a1.32,1.32,0,0,0-.22-.81.9.9,0,0,0-.75-.29.74.74,0,0,0-.61.26A1.1,1.1,0,0,0,775.34,448.17Z" transform="translate(-761.5 -422.5)"/><path class="cls-3" d="M775.39,440.78v1.8l5.18,0v1.2l-5.18,0v1.8h-1.18l0-4.8Z" transform="translate(-761.5 -422.5)"/><text x="-761.5" y="-422.5"/><text class="cls-4" transform="translate(22.97 59.51) scale(1.05 1)"><tspan xml:space="preserve"> Best </tspan><tspan class="cls-3" x="8.43" y="0" xml:space="preserve">shoes     </tspan><tspan class="cls-5" x="21.83" y="0">Best </tspan><tspan class="cls-3" x="29.54" y="0">offers</tspan></text><path class="cls-6" d="M825.21,464l-38.85.48,0-1.67L822,458.29a3.51,3.51,0,0,0,3.23-3.3l-.14-10.27a3.35,3.35,0,0,0-3.6-3.05l-35.4.44,0-2.35a4.1,4.1,0,0,0-4.39-3.73l-6.9.09a2.43,2.43,0,1,0,.06,4.81l5.72-.07.34,24.76a4.1,4.1,0,0,0,4.4,3.73l40-.5a2.43,2.43,0,1,0-.06-4.81Zm-23.41-6.65-6.77.87-.18-12.82,6.78-.09Zm3-12.08,6.78-.08.15,10.89L805,457Zm16.45,9.59-6.37.82-.15-10.53,6.39-.08Zm-29.54-9.42.18,13.18-5.59.72-.19-13.83Z" transform="translate(-761.5 -422.5)"/><path d="M793.47,469.71c-3,0-5.43,2.2-5.39,4.82s2.5,4.73,5.52,4.69S799,477,799,474.4,796.48,469.67,793.47,469.71Z" transform="translate(-761.5 -422.5)"/><path d="M816.93,469.71c-3,0-5.43,2.2-5.39,4.82s2.5,4.73,5.52,4.69,5.42-2.19,5.39-4.82S819.94,469.67,816.93,469.71Z" transform="translate(-761.5 -422.5)"/><ellipse class="cls-3" cx="32.29" cy="52.29" rx="2.27" ry="1.8"/><ellipse class="cls-3" cx="55.75" cy="52.29" rx="2.27" ry="1.8"/><line class="cls-7" x1="32.29" y1="52.66" x2="35.32" y2="54.82"/><line class="cls-7" x1="35.32" y1="52.66" x2="32.29" y2="54.82"/><ellipse cx="32.29" cy="52.29" rx="0.76" ry="0.36"/><ellipse cx="55.75" cy="52.29" rx="0.76" ry="0.36"/></g></svg>